<?xml version="1.0" encoding="utf-8"?>
<!-- Generator: Adobe Illustrator 19.2.1, SVG Export Plug-In . SVG Version: 6.00 Build 0)  -->
<svg version="1.1" id="Layer_1" xmlns="http://www.w3.org/2000/svg" xmlns:xlink="http://www.w3.org/1999/xlink" x="0px" y="0px"
	 viewBox="0 0 32 32" style="enable-background:new 0 0 32 32;" xml:space="preserve">
<style type="text/css">
	.st0{fill:#BED2D3;}
</style>
<g>
	<path class="st0" d="M22.2,10.9h-2.3v4.2h2.3c0.7,0,1.3-0.2,1.7-0.6c0.4-0.4,0.6-0.9,0.6-1.5c0-0.7-0.2-1.2-0.6-1.6
		C23.5,11.1,22.9,10.9,22.2,10.9z"/>
	<path class="st0" d="M10.4,10.9H7.7v4.4h2.6c0.8,0,1.4-0.2,1.8-0.5c0.4-0.4,0.6-0.9,0.6-1.6c0-0.7-0.2-1.3-0.6-1.7
		C11.7,11.2,11.1,11,10.4,10.9z"/>
	<path class="st0" d="M16,0C7.2,0,0,7.2,0,16c0,8.8,7.2,16,16,16c8.8,0,16-7.2,16-16C32,7.2,24.8,0,16,0z M14.2,16.5
		c-0.9,0.8-2.3,1.2-3.9,1.2H7.7v5H4.8V8.6h5.5c1.1,0,2,0.2,2.8,0.6s1.4,0.9,1.9,1.7c0.4,0.7,0.7,1.5,0.7,2.4
		C15.6,14.7,15.2,15.7,14.2,16.5z M24.8,22.7l-2.7-5.2h-2.3v5.2h-2.9V8.6h5.3c1.7,0,3,0.4,3.9,1.1c0.9,0.7,1.4,1.8,1.4,3.2
		c0,1-0.2,1.8-0.6,2.4c-0.4,0.6-1.1,1.2-1.9,1.5l3.1,5.8v0.1H24.8z"/>
</g>
</svg>
