<?xml version="1.0" encoding="utf-8"?>
<!-- Generator: Adobe Illustrator 19.2.1, SVG Export Plug-In . SVG Version: 6.00 Build 0)  -->
<svg version="1.1" id="Layer_1" xmlns="http://www.w3.org/2000/svg" xmlns:xlink="http://www.w3.org/1999/xlink" x="0px" y="0px"
	 viewBox="0 0 210 20.6" style="enable-background:new 0 0 210 20.6;" xml:space="preserve">
<style type="text/css">
	.st0{fill:#FFFFFF;}
</style>
<g>
	<path class="st0" d="M16.4,1.5c0,0.7-0.6,1.3-1.3,1.3H9.5v16.1c0,0.7-0.6,1.3-1.3,1.3s-1.3-0.6-1.3-1.3V2.8H1.3
		C0.6,2.8,0,2.2,0,1.5s0.6-1.3,1.3-1.3H15C15.8,0.3,16.4,0.8,16.4,1.5z"/>
	<path class="st0" d="M28.3,20.6c-1.4,0-2.7-0.3-4-0.8c-1.2-0.5-2.3-1.3-3.3-2.2c-0.9-1-1.7-2-2.2-3.3s-0.8-2.6-0.8-3.9
		c0-1.4,0.3-2.7,0.8-4C19.2,5.1,20,3.9,20.9,3c1-1,2.1-1.7,3.3-2.2c1.3-0.5,2.6-0.8,4-0.8c2.7,0,5.4,1.1,7.3,3
		c0.9,0.9,1.6,2,2.1,3.2c0.5,1.3,0.8,2.6,0.8,3.9c0,1.4-0.3,2.7-0.8,3.9c-0.5,1.2-1.2,2.3-2.2,3.3C33.7,19.5,31.1,20.6,28.3,20.6z
		 M28.4,2.5c-1.1,0-2.1,0.2-3.1,0.6c-1,0.4-1.8,1-2.5,1.7S21.4,6.4,21,7.4c-0.4,0.9-0.6,1.9-0.6,3s0.2,2,0.6,3
		c0.4,0.9,1,1.8,1.7,2.5c1.5,1.5,3.4,2.3,5.6,2.3s4-0.8,5.6-2.3c0.7-0.7,1.2-1.5,1.6-2.5c0.4-1,0.6-2,0.6-3c0-2.1-0.8-4-2.2-5.5
		C32.5,3.3,30.4,2.5,28.4,2.5z"/>
	<path class="st0" d="M45,20.1c-0.7,0-1.3-0.6-1.3-1.3V1.4c0-0.7,0.6-1.3,1.3-1.3h7.5c0.1,0,0.7,0,1.5,0.2c1.1,0.3,2.1,0.8,2.8,1.6
		c0.6,0.6,1,1.2,1.3,2c0.3,0.9,0.5,1.8,0.5,2.9c0,2.4-1,4.2-2.9,5.4c-1.4,0.8-3.2,1.2-5.5,1.2c-0.7,0-1.3-0.6-1.3-1.3
		c0-0.7,0.6-1.3,1.3-1.3c1.8,0,3.2-0.3,4.1-0.8C55.5,9.4,56,8.4,56,6.9c0-1-0.2-1.8-0.6-2.5c-0.3-0.5-0.7-0.9-1.2-1.2
		c-0.9-0.5-1.8-0.6-1.9-0.6H46v16.1C46.2,19.6,45.7,20.1,45,20.1z"/>
	<path class="st0" d="M65.1,20c-0.7,0-1.3-0.6-1.3-1.3V1.3c0-0.7,0.6-1.3,1.3-1.3c0.7,0,1.3,0.6,1.3,1.3v17.5
		C66.3,19.5,65.8,20,65.1,20z M78.5,20c-0.3,0-0.7,0-1.1-0.2c-0.7-0.2-1.6-0.8-2.4-2.1c-2.2-3.8-7.1-6.5-7.1-6.5
		c-0.4-0.2-0.6-0.6-0.6-1c-0.1-0.4,0.1-0.8,0.4-1.1l9-8.6C77.1,0,78,0,78.5,0.5s0.5,1.3,0,1.8l-7.8,7.5c1.8,1.2,4.9,3.5,6.6,6.6
		c0.6,1.1,1.2,1.1,1.3,1.1c0.7-0.1,1.3,0.4,1.4,1c0.1,0.7-0.4,1.3-1,1.5C78.8,20,78.6,20,78.5,20z"/>
	<path class="st0" d="M93.7,20.6c-1.4,0-2.7-0.3-4-0.8c-1.2-0.5-2.3-1.3-3.3-2.2c-0.9-1-1.7-2-2.2-3.3c-0.5-1.3-0.8-2.6-0.8-3.9
		c0-1.4,0.3-2.7,0.8-4c0.5-1.2,1.3-2.3,2.2-3.2c1-1,2.1-1.7,3.3-2.2C91,0.3,92.3,0,93.7,0c2.7,0,5.4,1.1,7.3,3
		c0.9,0.9,1.6,2,2.1,3.2c0.5,1.3,0.8,2.6,0.8,3.9c0,1.4-0.2,2.7-0.8,3.9c-0.5,1.2-1.2,2.3-2.2,3.3C99.1,19.5,96.5,20.6,93.7,20.6z
		 M93.8,2.5c-1.1,0-2.1,0.2-3.1,0.6c-1,0.4-1.8,1-2.5,1.7s-1.3,1.5-1.7,2.5c-0.4,0.9-0.6,1.9-0.6,3s0.2,2,0.6,3
		c0.4,0.9,1,1.8,1.7,2.5c1.5,1.5,3.4,2.3,5.6,2.3s4-0.8,5.6-2.3c0.7-0.7,1.2-1.5,1.6-2.5c0.4-1,0.6-2,0.6-3c0-2.1-0.8-4-2.2-5.5
		C97.9,3.3,95.8,2.5,93.8,2.5z"/>
	<path class="st0" d="M124,20.2c-0.4,0-0.7-0.2-1-0.5L110.8,5.1v13.9c0,0.7-0.6,1.3-1.3,1.3c-0.7,0-1.3-0.6-1.3-1.3V1.6
		c0-0.5,0.3-1,0.8-1.2c0.5-0.2,1.1,0,1.4,0.4l12.2,14.7V1.6c0-0.7,0.6-1.3,1.3-1.3c0.7,0,1.3,0.6,1.3,1.3V19c0,0.5-0.4,1-0.8,1.2
		C124.3,20.2,124.2,20.2,124,20.2z"/>
	<path class="st0" d="M139.9,20.6c-1.4,0-2.7-0.3-4-0.8c-1.2-0.5-2.3-1.3-3.3-2.2c-0.9-1-1.7-2-2.2-3.3c-0.5-1.3-0.8-2.6-0.8-3.9
		c0-1.4,0.3-2.7,0.8-4c0.5-1.2,1.3-2.3,2.2-3.2c1-1,2.1-1.7,3.3-2.2c1.3-0.5,2.6-0.8,4-0.8c2.7,0,5.4,1.1,7.3,3
		c0.9,0.9,1.6,2,2.1,3.2c0.5,1.3,0.8,2.6,0.8,3.9c0,1.4-0.3,2.7-0.8,3.9s-1.2,2.3-2.2,3.3C145.3,19.5,142.7,20.6,139.9,20.6z
		 M140,2.5c-1.1,0-2.1,0.2-3.1,0.6c-1,0.4-1.8,1-2.5,1.7s-1.3,1.5-1.7,2.5c-0.4,0.9-0.6,1.9-0.6,3s0.2,2,0.6,3
		c0.4,0.9,1,1.8,1.7,2.5c1.5,1.5,3.4,2.3,5.6,2.3s4-0.8,5.6-2.3c0.7-0.7,1.2-1.5,1.6-2.5c0.4-1,0.6-2,0.6-3c0-2.1-0.8-4-2.2-5.5
		C144,3.3,142.1,2.5,140,2.5z"/>
	<path class="st0" d="M167.7,1.5c0,0.7-0.6,1.3-1.3,1.3h-5.6v16.1c0,0.7-0.6,1.3-1.3,1.3c-0.7,0-1.3-0.6-1.3-1.3V2.8h-5.6
		c-0.7,0-1.3-0.6-1.3-1.3s0.6-1.3,1.3-1.3h13.8C167.1,0.3,167.7,0.8,167.7,1.5z"/>
	<path class="st0" d="M179.5,20.6c-1.4,0-2.7-0.3-4-0.8c-1.2-0.5-2.3-1.3-3.3-2.2c-0.9-1-1.7-2-2.2-3.3c-0.5-1.3-0.8-2.6-0.8-3.9
		c0-1.4,0.3-2.7,0.8-4c0.5-1.2,1.3-2.3,2.2-3.2c1-1,2.1-1.7,3.3-2.2c1.3-0.5,2.6-0.8,4-0.8c2.7,0,5.4,1.1,7.3,3
		c0.9,0.9,1.6,2,2.1,3.2c0.5,1.3,0.8,2.6,0.8,3.9c0,1.4-0.3,2.7-0.8,3.9s-1.2,2.3-2.2,3.3C184.9,19.5,182.3,20.6,179.5,20.6z
		 M179.6,2.5c-1.1,0-2.1,0.2-3.1,0.6c-1,0.4-1.8,1-2.5,1.7s-1.3,1.5-1.7,2.5c-0.4,0.9-0.6,1.9-0.6,3s0.2,2,0.6,3
		c0.4,0.9,1,1.8,1.7,2.5c1.5,1.5,3.4,2.3,5.6,2.3s4-0.8,5.6-2.3c0.7-0.7,1.2-1.5,1.6-2.5c0.4-1,0.6-2,0.6-3c0-2.1-0.8-4-2.2-5.5
		C183.6,3.3,181.7,2.5,179.6,2.5z"/>
	<path class="st0" d="M196.4,20.1c-0.7,0-1.3-0.6-1.3-1.3V1.4c0-0.7,0.6-1.3,1.3-1.3h7.5c0.1,0,0.7,0,1.5,0.2
		c1.1,0.3,2.1,0.8,2.8,1.6c0.6,0.6,1,1.2,1.3,2c0.3,0.9,0.5,1.8,0.5,2.9c0,2.4-1,4.2-2.9,5.4c-1.4,0.8-3.2,1.2-5.5,1.2
		c-0.7,0-1.3-0.6-1.3-1.3c0-0.7,0.6-1.3,1.3-1.3c1.8,0,3.2-0.3,4.1-0.8c1.1-0.6,1.6-1.6,1.6-3.1c0-1-0.2-1.8-0.6-2.5
		c-0.3-0.5-0.7-0.9-1.2-1.2c-0.9-0.5-1.8-0.6-1.9-0.6h-6.3v16.1C197.6,19.6,197.1,20.1,196.4,20.1z"/>
</g>
</svg>
